<svg width="56" height="56" viewBox="0 0 56 56" fill="none" xmlns="http://www.w3.org/2000/svg">
<path d="M28 32.6667C31.8734 32.6667 35 29.5401 35 25.6667V11.6667C35 7.79341 31.8734 4.66675 28 4.66675C24.1267 4.66675 21 7.79341 21 11.6667V25.6667C21 29.5401 24.1267 32.6667 28 32.6667ZM41.79 25.6667C40.6467 25.6667 39.69 26.5067 39.5034 27.6501C38.5467 33.1334 33.7634 37.3334 28 37.3334C22.2367 37.3334 17.4534 33.1334 16.4967 27.6501C16.4135 27.1016 16.1377 26.6008 15.7186 26.2373C15.2996 25.8739 14.7647 25.6716 14.21 25.6667C12.7867 25.6667 11.6667 26.9267 11.8767 28.3267C13.02 35.3267 18.62 40.8101 25.6667 41.8134V46.6667C25.6667 47.9501 26.7167 49.0001 28 49.0001C29.2834 49.0001 30.3334 47.9501 30.3334 46.6667V41.8134C33.7674 41.3239 36.9559 39.7524 39.4357 37.3271C41.9156 34.9018 43.5576 31.749 44.1234 28.3267C44.3567 26.9267 43.2134 25.6667 41.79 25.6667Z" fill="white"/>
</svg>
