<svg width="56" height="56" viewBox="0 0 56 56" fill="none" xmlns="http://www.w3.org/2000/svg">
<path fill-rule="evenodd" clip-rule="evenodd" d="M23.3333 4.6665C24.6219 4.6665 25.6666 5.71117 25.6666 6.99984V48.9998C25.6666 50.2885 24.6219 51.3332 23.3333 51.3332C22.0446 51.3332 20.9999 50.2885 20.9999 48.9998V6.99984C20.9999 5.71117 22.0446 4.6665 23.3333 4.6665ZM41.9999 9.33317C43.2886 9.33317 44.3333 10.3778 44.3333 11.6665V41.9998C44.3333 43.2885 43.2886 44.3332 41.9999 44.3332C40.7113 44.3332 39.6666 43.2885 39.6666 41.9998V11.6665C39.6666 10.3778 40.7113 9.33317 41.9999 9.33317ZM13.9999 11.6665C15.2886 11.6665 16.3333 12.7112 16.3333 13.9998V39.6665C16.3333 40.9552 15.2886 41.9998 13.9999 41.9998C12.7113 41.9998 11.6666 40.9552 11.6666 39.6665V13.9998C11.6666 12.7112 12.7113 11.6665 13.9999 11.6665ZM32.6666 16.3332C33.9552 16.3332 34.9999 17.3778 34.9999 18.6665V34.9998C34.9999 36.2885 33.9552 37.3332 32.6666 37.3332C31.3779 37.3332 30.3333 36.2885 30.3333 34.9998V18.6665C30.3333 17.3778 31.3779 16.3332 32.6666 16.3332ZM4.66659 20.9998C5.95525 20.9998 6.99992 22.0445 6.99992 23.3332V30.3332C6.99992 31.6218 5.95525 32.6665 4.66659 32.6665C3.37792 32.6665 2.33325 31.6218 2.33325 30.3332V23.3332C2.33325 22.0445 3.37792 20.9998 4.66659 20.9998ZM51.3333 20.9998C52.6219 20.9998 53.6666 22.0445 53.6666 23.3332V30.3332C53.6666 31.6218 52.6219 32.6665 51.3333 32.6665C50.0446 32.6665 48.9999 31.6218 48.9999 30.3332V23.3332C48.9999 22.0445 50.0446 20.9998 51.3333 20.9998Z" fill="white"/>
</svg>
